<svg width="286" height="286" viewBox="0 0 286 286" fill="none" xmlns="http://www.w3.org/2000/svg">
<path opacity="0.34" d="M236.379 233.919H59.2878C57.0284 233.919 55.198 232.089 55.198 229.829C55.198 227.57 57.0284 225.74 59.2878 225.74H236.379C238.639 225.74 240.469 227.57 240.469 229.829C240.469 232.089 238.639 233.919 236.379 233.919Z" fill="black"/>
<path d="M182.585 229.836H187.733V152.388H182.585V229.836Z" fill="#2F262D"/>
<path d="M162.991 167.997C162.162 166.137 162.991 163.935 164.879 163.077C165.365 162.877 165.88 162.763 166.395 162.763C167.853 162.763 169.197 163.621 169.798 164.965L188.102 206.206L181.295 209.237L162.991 167.997Z" fill="#FC9F6F"/>
<path d="M132.391 229.836H137.539V152.388H132.391V229.836Z" fill="#2F262D"/>
<path d="M156.213 157.443C138.51 157.443 124.181 143.944 124.181 127.327C124.181 123.037 125.153 118.947 126.869 115.229C115.601 119.891 107.736 130.502 107.736 142.8C107.736 159.445 122.065 172.915 139.768 172.915C152.895 172.915 164.164 165.508 169.112 154.897C165.137 156.528 160.789 157.443 156.213 157.443Z" fill="#F2F2F2"/>
<path d="M138.481 165.594C148.164 165.594 156.013 158.385 156.013 149.492C156.013 140.6 148.164 133.391 138.481 133.391C128.799 133.391 120.949 140.6 120.949 149.492C120.949 158.385 128.799 165.594 138.481 165.594Z" fill="#3B323A"/>
<path d="M106.907 152.381H67.6962C66.209 152.381 64.9792 151.151 64.9792 149.664V147.09C64.9792 145.603 66.209 144.373 67.6962 144.373H106.907C108.394 144.373 109.624 145.603 109.624 147.09V149.664C109.624 151.151 108.394 152.381 106.907 152.381Z" fill="#AFAFAF"/>
<path d="M153.668 137.223C148.177 137.223 143.715 132.761 143.715 127.27V117.317C143.715 113.513 140.655 110.453 136.851 110.453V127.27C136.851 136.565 144.373 144.087 153.668 144.087H167.596V137.223H153.668Z" fill="#EF9067"/>
<path d="M155.927 84.6848C154.897 97.6975 143.457 112.112 132.761 110.281C122.523 108.537 115.487 92.378 118.947 81.0526C121.093 74.074 126.984 69.6982 131.731 66.1804C136.651 62.5196 139.969 60.06 143.743 60.6606C151.237 61.8046 156.757 74.3314 155.927 84.6848Z" fill="#603936"/>
<path d="M141.484 121.721C141.284 121.493 139.683 119.634 139.397 119.377C138.653 116.316 137.137 112.941 137.451 108.995C135.307 107.421 131.76 105.419 127.727 105.705C126.527 105.791 125.268 106.077 124.639 106.221C121.149 107.021 118.947 108.308 118.233 108.737C117.26 109.338 116.774 109.624 116.202 110.196C114.657 111.797 114.285 113.742 114.085 114.886C112.369 124.839 113.713 134.391 113.885 135.221C114.2 136.737 114.629 138.081 114.629 138.081C115.344 140.34 116.202 141.741 116.431 142.371C117.575 145.459 120.177 151.952 122.923 156.899C124.925 157.214 129.472 159.216 132.475 158.187C137.051 156.613 146.489 153.096 149.864 152.381C145.66 147.662 141.799 142.399 140.798 135.993C140.541 134.334 140.311 132.704 140.14 131.103C140.541 130.902 142.971 129.673 143.457 127.213C143.973 124.553 141.885 122.179 141.484 121.721Z" fill="#F05364"/>
<path d="M131.156 115.684C133.651 114.989 135.017 112.07 134.207 109.163C133.397 106.258 130.716 104.466 128.221 105.161C125.726 105.857 124.361 108.777 125.171 111.683C125.981 114.589 128.661 116.381 131.156 115.684Z" fill="#EF9067"/>
<path d="M128.957 103.933C130.531 107.651 133.133 108.937 134.792 109.91C138.023 111.797 144.087 111.626 144.087 111.626C144.287 110.31 144.487 109.166 145.517 106.993C147.004 103.761 148.377 102.989 150.293 100.071C153.153 95.6674 154.583 90.3472 153.668 89.8329C153.01 89.4323 151.208 91.4912 150.035 92.6929C146.689 96.1249 139.196 101.215 128.957 103.933Z" fill="#603936"/>
<path d="M128.843 112.112H127.642C125.011 112.112 122.894 109.995 122.894 107.365V89.3177H132.389V108.537C132.389 110.511 130.788 112.112 128.843 112.112Z" fill="#EF9067"/>
<path d="M75.3848 229.836H80.5329V152.388H75.3848V229.836Z" fill="#2F262D"/>
<path d="M107.048 229.836H112.196V152.388H107.048V229.836Z" fill="#494149"/>
<path d="M213.571 229.836H218.719V152.388H213.571V229.836Z" fill="#494149"/>
<path opacity="0.71" d="M122.894 91.234C123.523 96.6968 127.299 101.215 132.389 102.931V88.2314H122.894V91.234Z" fill="#D36B46"/>
<path d="M136.851 102.217C129.873 102.217 124.239 96.5823 124.239 89.6038V74.217C124.239 73.5592 124.753 73.0444 125.411 73.0444H143.343C146.718 73.0444 149.463 75.79 149.463 79.1651V89.6038C149.463 96.5823 143.829 102.217 136.851 102.217Z" fill="#FC9F6F"/>
<path d="M149.463 87.802C149.321 88.1449 148.977 88.374 148.605 88.374H143.057C142.543 88.374 142.113 87.9446 142.113 87.4303V84.3131C142.113 83.798 142.543 83.3686 143.057 83.3686H148.605C148.977 83.3686 149.321 83.5977 149.463 83.9406V82.7397C149.206 82.5971 148.92 82.5106 148.605 82.5106H143.057C142.056 82.5106 141.255 83.3117 141.255 84.3131V87.4303C141.255 88.4309 142.056 89.232 143.057 89.232H148.605C148.92 89.232 149.206 89.1463 149.463 89.0029V87.802Z" fill="#DD9883"/>
<path d="M138.309 88.7746H132.761C131.989 88.7746 131.389 88.1449 131.389 87.4015V84.2843C131.389 83.512 132.017 82.9112 132.761 82.9112H138.309C139.082 82.9112 139.683 83.5408 139.683 84.2843V87.4015C139.683 88.1737 139.053 88.7746 138.309 88.7746Z" stroke="#DD9883" stroke-width="3" stroke-miterlimit="10" stroke-linecap="round" stroke-linejoin="round"/>
<path opacity="0.6" d="M132.075 92.0063V76.6192C132.075 75.9615 132.589 75.4468 133.247 75.4468L143.601 71.8146C142.485 70.356 145.317 73.073 143.343 73.073H125.411C124.753 73.073 124.239 73.5878 124.239 74.2456V89.6326C124.239 96.6111 129.873 102.245 136.851 102.245C136.994 102.245 137.137 102.245 137.309 102.245C134.134 99.9286 132.075 96.2106 132.075 92.0063Z" fill="#EF9067"/>
<path d="M148.605 88.2025H143.057C142.285 88.2025 141.685 87.5729 141.685 86.8294V83.7123C141.685 82.94 142.313 82.3392 143.057 82.3392H148.605C149.378 82.3392 149.979 82.9688 149.979 83.7123V86.8294C149.979 87.6017 149.349 88.2025 148.605 88.2025Z" stroke="#F6CDF7" stroke-width="3" stroke-miterlimit="10" stroke-linecap="round" stroke-linejoin="round"/>
<path d="M140.14 95.8669C138.539 95.8669 137.251 94.5803 137.251 93.0069V91.6626H142.971V93.0069C142.971 94.5803 141.713 95.8669 140.14 95.8669Z" fill="#FCFAFA"/>
<path d="M134.963 84.9131H137.537" stroke="#161515" stroke-width="3" stroke-miterlimit="10" stroke-linecap="round" stroke-linejoin="round"/>
<path d="M144.687 84.9131H147.261" stroke="#161515" stroke-width="3" stroke-miterlimit="10" stroke-linecap="round" stroke-linejoin="round"/>
<path d="M138.309 88.2025H132.761C131.989 88.2025 131.389 87.5729 131.389 86.8294V83.7123C131.389 82.94 132.017 82.3392 132.761 82.3392H138.309C139.082 82.3392 139.683 82.9688 139.683 83.7123V86.8294C139.683 87.6017 139.053 88.2025 138.309 88.2025Z" stroke="#F6CDF7" stroke-width="3" stroke-miterlimit="10" stroke-linecap="round" stroke-linejoin="round"/>
<path d="M142.142 61.4614C138.681 56.9998 132.79 57.0856 131.703 56.9712C130.731 56.771 125.383 57.0284 121.464 58.058C112.427 60.4604 106.135 68.64 106.135 78.0211V90.0331C106.135 98.098 112.083 107.879 119.719 110.425C123.953 111.855 128.643 112.941 129.758 112.77C124.095 102.273 124.867 96.0671 126.469 92.4349C130.301 83.5689 141.541 83.8837 144.315 74.0168C144.373 73.7308 146.117 66.6094 142.142 61.4614Z" fill="#754743"/>
<path d="M177.434 144.001C177.72 143.257 177.863 142.457 177.863 141.627C177.863 137.823 174.803 134.763 170.999 134.763C167.195 134.763 164.135 137.823 164.135 141.627C164.135 142.457 164.279 143.257 164.565 144.001H177.434Z" fill="#EF9067"/>
<path d="M155.413 144.373C154.841 141.741 151.666 139.739 147.805 139.739C143.973 139.739 140.769 141.741 140.197 144.373H155.413Z" fill="#F4EFF0"/>
<path d="M117.746 124.353C120.052 124.353 121.922 121.42 121.922 117.803C121.922 114.186 120.052 111.254 117.746 111.254C115.44 111.254 113.571 114.186 113.571 117.803C113.571 121.42 115.44 124.353 117.746 124.353Z" fill="#EF9067"/>
<path d="M130.387 137.451C124.896 137.451 120.435 132.99 120.435 127.499V115.344C120.435 113.456 118.89 111.912 117.003 111.912C115.115 111.912 113.571 113.456 113.571 115.344V127.499C113.571 136.794 121.093 144.315 130.387 144.315H144.315V137.451H137.337H130.387Z" fill="#FC9F6F"/>
<path d="M188.217 144.373H156.185C155.784 144.373 155.441 144.029 155.441 143.629C155.441 143.229 155.784 142.885 156.185 142.885H188.245C188.645 142.885 188.989 143.229 188.989 143.629C188.989 144.029 188.645 144.373 188.217 144.373Z" fill="white"/>
<path d="M188.217 143.629H156.185C155.899 143.629 155.67 143.486 155.527 143.257C155.469 143.372 155.413 143.486 155.413 143.629C155.413 144.029 155.755 144.373 156.156 144.373H188.217C188.617 144.373 188.96 144.029 188.96 143.629C188.96 143.486 188.931 143.372 188.846 143.257C188.731 143.457 188.503 143.629 188.217 143.629Z" fill="#F4EFF0"/>
<path d="M162.391 144.373H156.185C155.784 144.373 155.441 144.029 155.441 143.629C155.441 143.229 155.784 142.885 156.185 142.885H162.391C162.791 142.885 163.135 143.229 163.135 143.629C163.135 144.029 162.82 144.373 162.391 144.373Z" fill="#F4EFF0"/>
<path d="M185.957 142.885H183.612V142.342C183.612 142.056 183.841 141.799 184.155 141.799H185.414C185.7 141.799 185.957 142.027 185.957 142.342V142.885Z" fill="#F4EFF0"/>
<path d="M183.097 142.885H180.752V142.342C180.752 142.056 180.981 141.799 181.295 141.799H182.554C182.84 141.799 183.097 142.027 183.097 142.342V142.885Z" fill="#F4EFF0"/>
<path d="M180.237 142.885H177.892V142.342C177.892 142.056 178.121 141.799 178.435 141.799H179.694C179.98 141.799 180.237 142.027 180.237 142.342V142.885Z" fill="#F4EFF0"/>
<path d="M177.377 142.885H175.032V142.342C175.032 142.056 175.261 141.799 175.575 141.799H176.834C177.12 141.799 177.377 142.027 177.377 142.342V142.885Z" fill="#F4EFF0"/>
<path d="M174.517 142.885H172.172V142.342C172.172 142.056 172.401 141.799 172.715 141.799H173.974C174.26 141.799 174.517 142.027 174.517 142.342V142.885Z" fill="#F4EFF0"/>
<path d="M171.657 142.885H169.312V142.342C169.312 142.056 169.541 141.799 169.855 141.799H171.114C171.4 141.799 171.657 142.027 171.657 142.342V142.885Z" fill="#F4EFF0"/>
<path d="M168.797 142.885H166.452V142.342C166.452 142.056 166.681 141.799 166.995 141.799H168.254C168.54 141.799 168.797 142.027 168.797 142.342V142.885Z" fill="#F4EFF0"/>
<path d="M165.937 142.885H163.592V142.342C163.592 142.056 163.821 141.799 164.135 141.799H165.394C165.68 141.799 165.937 142.027 165.937 142.342V142.885Z" fill="#F4EFF0"/>
<path d="M163.077 142.885H160.732V142.342C160.732 142.056 160.961 141.799 161.275 141.799H162.534C162.82 141.799 163.077 142.027 163.077 142.342V142.885Z" fill="#F4EFF0"/>
<path d="M160.217 142.885H157.872V142.342C157.872 142.056 158.101 141.799 158.415 141.799H159.674C159.96 141.799 160.217 142.027 160.217 142.342V142.885Z" fill="#F4EFF0"/>
<path d="M156.185 144.373H162.391C162.791 144.373 163.135 144.029 163.135 143.629H155.413C155.413 144.029 155.755 144.373 156.185 144.373Z" fill="#E2E2E2"/>
<path d="M158.959 167.596H136.336L136.165 155.584H164.193C166.08 155.584 167.596 157.1 167.596 158.987C167.567 163.763 163.707 167.596 158.959 167.596Z" fill="#352934"/>
<path d="M140.769 211.154L154.64 164.25C155.098 162.677 156.557 161.59 158.215 161.59C158.559 161.59 158.93 161.647 159.273 161.733C161.247 162.305 162.362 164.393 161.79 166.366L147.919 213.27L140.769 211.154Z" fill="#EF9067"/>
<path d="M152.295 207.321L140.769 203.918L155.298 154.812C156.242 151.637 159.588 149.807 162.763 150.751C165.937 151.695 167.767 155.041 166.824 158.215L152.295 207.321Z" fill="#352934"/>
<path d="M209.552 130.473H161.504C160.561 130.473 159.788 129.701 159.788 128.757L165.737 94.4369C165.737 93.4932 166.509 92.7209 167.453 92.7209H215.501C216.445 92.7209 217.217 93.4932 217.217 94.4369L211.268 128.757C211.268 129.701 210.525 130.473 209.552 130.473Z" fill="#CECECE"/>
<path d="M212.412 130.473H164.364C163.421 130.473 162.648 129.701 162.648 128.757L168.597 94.4369C168.597 93.4932 169.369 92.7209 170.313 92.7209H218.361C219.305 92.7209 220.077 93.4932 220.077 94.4369L214.128 128.757C214.128 129.701 213.385 130.473 212.412 130.473Z" fill="#F4EFF0"/>
<path d="M197.741 142.514L193.793 122.523H186.758C185.9 122.523 185.242 123.323 185.414 124.153L188.903 141.799C189.046 142.457 188.531 143.057 187.873 143.057H183.583C182.811 143.057 182.211 143.687 182.211 144.43H189.418H196.11C197.169 144.459 197.941 143.515 197.741 142.514Z" fill="#CECECE"/>
<path d="M198.112 144.459H190.819L186.587 123.009C186.529 122.751 186.729 122.551 186.987 122.551H195.195L199.256 143.115C199.371 143.801 198.827 144.459 198.112 144.459Z" fill="#F4EFF0"/>
<path d="M189.447 144.459H190.819L190.447 142.514H189.046L189.447 144.459Z" fill="#F4EFF0"/>
<path d="M189.447 144.459C190.161 144.459 190.705 143.801 190.562 143.086L190.447 142.514H188.903L189.447 144.459Z" fill="#CECECE"/>
<path d="M195.739 112.283C194.194 112.283 192.935 111.025 192.935 109.481C192.935 108.966 193.079 108.509 193.307 108.108C192.907 107.993 192.478 107.908 192.021 107.908C189.589 107.908 187.645 109.881 187.645 112.283C187.645 114.686 189.618 116.659 192.021 116.659C194.451 116.659 196.396 114.686 196.396 112.283C196.396 112.255 196.396 112.227 196.396 112.198C196.167 112.255 195.967 112.283 195.739 112.283Z" fill="#CECECE"/>
<path d="M162.477 161.047L138.91 167.253C132.504 168.94 126.011 164.393 122.894 156.871L159.417 149.407C162.619 148.577 165.909 150.493 166.738 153.697C167.596 156.928 165.68 160.217 162.477 161.047Z" fill="#3B323A"/>
<path d="M186.186 196.797L175.203 201.687L155.956 158.387C154.611 155.355 155.985 151.809 159.016 150.465C162.047 149.121 165.594 150.493 166.938 153.525L186.186 196.797Z" fill="#3B323A"/>
<path d="M104.533 152.381H226.998C228.485 152.381 229.715 151.151 229.715 149.664V147.09C229.715 145.603 228.485 144.373 226.998 144.373H104.533C103.046 144.373 101.816 145.603 101.816 147.09V149.664C101.816 151.151 103.017 152.381 104.533 152.381Z" fill="#F2F2F2"/>
<path d="M204.089 210.725L179.751 215.158C178.807 215.329 177.921 214.729 177.721 213.842L177.549 213.07C177.063 210.839 178.493 208.58 180.838 207.979L198.57 203.489C202.002 202.631 205.463 204.204 206.091 207.093L206.321 208.122C206.578 209.295 205.577 210.467 204.089 210.725Z" fill="#535452"/>
<path d="M205.033 208.523L177.835 213.471C177.777 213.471 177.721 213.499 177.663 213.499L177.749 213.842C177.949 214.757 178.836 215.329 179.779 215.158L204.118 210.725C205.605 210.467 206.635 209.295 206.377 208.122L206.349 208.037C205.949 208.265 205.519 208.437 205.033 208.523Z" fill="#FFFDFD"/>
<path d="M153.839 226.026L133.505 211.955C132.733 211.411 132.504 210.353 133.019 209.581L133.447 208.895C134.677 206.978 137.309 206.377 139.368 207.636L155.069 217.017C158.129 218.847 159.445 222.422 157.843 224.882L157.271 225.769C156.642 226.769 155.069 226.884 153.839 226.026Z" fill="#424441"/>
<path d="M156.07 225.139L133.333 209.409C133.276 209.381 133.247 209.323 133.19 209.295L133.019 209.581C132.533 210.353 132.733 211.411 133.505 211.955L153.839 226.026C155.069 226.884 156.642 226.769 157.271 225.769L157.329 225.683C156.899 225.597 156.471 225.397 156.07 225.139Z" fill="#CECECE"/>
<path d="M97.526 144.373H92.8931C90.5474 144.373 88.6312 142.457 88.6312 140.111V127.499H101.787V140.111C101.816 142.457 99.8997 144.373 97.526 144.373Z" fill="#FF6161"/>
<path d="M90.1188 129.215C87.0586 129.215 84.5991 131.703 84.5991 134.735C84.5991 137.766 87.0874 140.255 90.1188 140.255C93.1503 140.255 95.6386 137.766 95.6386 134.735C95.6386 131.703 93.1503 129.215 90.1188 129.215ZM90.1188 139.053C87.7451 139.053 85.8 137.109 85.8 134.735C85.8 132.361 87.7451 130.416 90.1188 130.416C92.4926 130.416 94.4369 132.361 94.4369 134.735C94.4088 137.137 92.4926 139.053 90.1188 139.053Z" fill="#F4A36C"/>
<path d="M97.526 144.373H92.8931C90.5474 144.373 88.6312 142.457 88.6312 140.111V127.499H101.787V140.111C101.816 142.457 99.8997 144.373 97.526 144.373Z" fill="#F7BC8B"/>
<path d="M94.8663 140.369C93.5508 140.369 92.4925 139.311 92.4925 137.995V127.499H88.6312V140.111C88.6312 142.457 90.5474 144.373 92.8931 144.373H97.526C99.7852 144.373 101.645 142.599 101.787 140.369H94.8663Z" fill="#EFA573"/>
<path d="M149.407 144.373C149.693 143.629 149.835 142.829 149.835 141.999C149.835 138.195 146.775 135.135 142.971 135.135C139.167 135.135 136.107 138.195 136.107 141.999C136.107 142.829 136.251 143.629 136.537 144.373H149.407Z" fill="#FC9F6F"/>
<path opacity="0.77" d="M93.7792 125.211C94.8063 125.211 95.6385 124.378 95.6385 123.352C95.6385 122.325 94.8063 121.493 93.7792 121.493C92.7527 121.493 91.9205 122.325 91.9205 123.352C91.9205 124.378 92.7527 125.211 93.7792 125.211Z" fill="#F2F2F2"/>
<path opacity="0.77" d="M97.2112 119.634C98.7436 119.634 99.9854 118.392 99.9854 116.859C99.9854 115.328 98.7436 114.085 97.2112 114.085C95.6795 114.085 94.4369 115.328 94.4369 116.859C94.4369 118.392 95.6795 119.634 97.2112 119.634Z" fill="#F2F2F2"/>
</svg>
